<svg xmlns="http://www.w3.org/2000/svg" xmlns:xlink="http://www.w3.org/1999/xlink" width="777" height="776" viewBox="0 0 777 776">
  <defs>
    <clipPath id="clip-path">
      <rect id="Rectangle_1544" data-name="Rectangle 1544" width="777" height="776" transform="translate(1143 5417)" fill="#fff" stroke="#707070" stroke-width="1"/>
    </clipPath>
  </defs>
  <g id="Mask_Group_45" data-name="Mask Group 45" transform="translate(-1143 -5417)" clip-path="url(#clip-path)">
    <g id="Group_10778" data-name="Group 10778" transform="translate(0 264)">
      <rect id="Rectangle_28" data-name="Rectangle 28" width="875.756" height="546.899" rx="55" transform="translate(1162.544 5250.827)" fill="#00baff"/>
      <g id="Group_9952" data-name="Group 9952" transform="translate(-36.073 -7.898)" opacity="0.601">
        <line id="Line_161" data-name="Line 161" y2="94.751" transform="translate(1240.5 5379.01)" fill="none" stroke="#00ff80" stroke-linecap="round" stroke-width="24" opacity="0.352"/>
        <line id="Line_174" data-name="Line 174" y2="94.751" transform="translate(1848.486 5233.5)" fill="none" stroke="#00ff80" stroke-linecap="round" stroke-width="24" opacity="0.453"/>
        <line id="Line_167" data-name="Line 167" y2="94.751" transform="translate(1928.573 5667.775) rotate(180)" fill="none" stroke="#00ff80" stroke-linecap="round" stroke-width="24" opacity="0.352"/>
        <path id="Path_5491" data-name="Path 5491" d="M0,32.9V90.54" transform="translate(1449.178 5488.125)" fill="none" stroke="#00ff80" stroke-linecap="round" stroke-width="24" opacity="0.352"/>
        <path id="Path_5493" data-name="Path 5493" d="M0,0V57.639" transform="translate(1719.895 5525.761) rotate(180)" fill="none" stroke="#00ff80" stroke-linecap="round" stroke-width="24" opacity="0.352"/>
        <path id="Path_5492" data-name="Path 5492" d="M0,32.9V90.54" transform="translate(1555.209 5577.235)" fill="none" stroke="#00ff80" stroke-linecap="round" stroke-width="24" opacity="0.352"/>
        <path id="Path_5494" data-name="Path 5494" d="M0,0V57.639" transform="translate(1613.864 5436.65) rotate(180)" fill="none" stroke="#00ff80" stroke-linecap="round" stroke-width="24" opacity="0.352"/>
        <line id="Line_162" data-name="Line 162" y2="94.751" transform="translate(1335.251 5454.585)" fill="none" stroke="#00ff80" stroke-linecap="round" stroke-width="12" opacity="0.112"/>
        <line id="Line_168" data-name="Line 168" y2="94.751" transform="translate(1833.822 5592.2) rotate(180)" fill="none" stroke="#00ff80" stroke-linecap="round" stroke-width="12" opacity="0.112"/>
        <line id="Line_165" data-name="Line 165" y2="150.022" transform="translate(1299.155 5285.388)" fill="none" stroke="#00ff80" stroke-linecap="round" stroke-width="12" opacity="0.178"/>
        <line id="Line_169" data-name="Line 169" y2="150.022" transform="translate(1869.917 5761.398) rotate(180)" fill="none" stroke="#00ff80" stroke-linecap="round" stroke-width="12" opacity="0.178"/>
        <line id="Line_164" data-name="Line 164" y2="58.655" transform="translate(1277.724 5538.057)" fill="none" stroke="#00ff80" stroke-linecap="round" stroke-width="12" opacity="0.364"/>
        <line id="Line_170" data-name="Line 170" y2="58.655" transform="translate(1891.349 5508.729) rotate(180)" fill="none" stroke="#00ff80" stroke-linecap="round" stroke-width="12" opacity="0.364"/>
        <line id="Line_163" data-name="Line 163" y2="66.551" transform="translate(1393.906 5388.034)" fill="none" stroke="#00ff80" stroke-linecap="round" stroke-width="12" opacity="0.459"/>
        <line id="Line_173" data-name="Line 173" y2="66.551" transform="translate(1788.702 5360.963)" fill="none" stroke="#00ff80" stroke-linecap="round" stroke-width="12" opacity="0.617"/>
        <line id="Line_171" data-name="Line 171" y2="66.551" transform="translate(1775.166 5658.751) rotate(180)" fill="none" stroke="#00ff80" stroke-linecap="round" stroke-width="12" opacity="0.459"/>
        <line id="Line_166" data-name="Line 166" y2="66.551" transform="translate(1473.994 5294.411)" fill="none" stroke="#00ff80" stroke-linecap="round" stroke-width="12" opacity="0.459"/>
        <line id="Line_172" data-name="Line 172" y2="66.551" transform="translate(1695.079 5752.375) rotate(180)" fill="none" stroke="#00ff80" stroke-linecap="round" stroke-width="12" opacity="0.459"/>
      </g>
      <g id="Group_9776" data-name="Group 9776" transform="translate(1315 5511.744)">
        <ellipse id="Ellipse_4767" data-name="Ellipse 4767" cx="159.219" cy="25.165" rx="159.219" ry="25.165" transform="translate(87.867 367.365) rotate(-7)" fill="#f5f7f8"/>
        <rect id="Rectangle_1403" data-name="Rectangle 1403" width="75.496" height="81.303" rx="37.748" transform="translate(100.079 289.188) rotate(16)" fill="#fda9f3"/>
        <circle id="Ellipse_4766" data-name="Ellipse 4766" cx="177.125" cy="177.125" r="177.125" transform="translate(34.844)" fill="#ffb7f6"/>
        <path id="Path_5374" data-name="Path 5374" d="M141.8,0a141.8,141.8,0,0,1,141.8,141.8c0,78.312-63.485,125.567-141.8,125.567S0,220.109,0,141.8A141.8,141.8,0,0,1,141.8,0Z" transform="translate(0 53.234)" fill="#ffccf9"/>
        <path id="Path_5366" data-name="Path 5366" d="M64.789,0a64.789,64.789,0,0,1,64.789,64.789c0,35.782-29.007,47.911-64.789,47.911S0,100.571,0,64.789A64.789,64.789,0,0,1,64.789,0Z" transform="translate(60.554 166.321)" fill="#fda9f3"/>
        <path id="Path_5370" data-name="Path 5370" d="M13.911,0A13.911,13.911,0,0,1,27.821,13.911c0,7.683-6.228.36-13.911.36S0,21.593,0,13.911A13.911,13.911,0,0,1,13.911,0Z" transform="translate(155.35 142.686) rotate(14)" fill="#d5c"/>
        <path id="Path_5371" data-name="Path 5371" d="M13.911,0A13.911,13.911,0,0,1,27.821,13.911c0,7.683-6.228.36-13.911.36S0,21.593,0,13.911A13.911,13.911,0,0,1,13.911,0Z" transform="matrix(0.966, -0.259, 0.259, 0.966, 62.447, 149.689)" fill="#d5c"/>
        <rect id="Rectangle_1404" data-name="Rectangle 1404" width="75.496" height="88.079" rx="37.748" transform="matrix(0.914, -0.407, 0.407, 0.914, 218.505, 320.376)" fill="#fda9f3"/>
        <rect id="Rectangle_1405" data-name="Rectangle 1405" width="75.496" height="88.079" rx="37.748" transform="matrix(0.914, -0.407, 0.407, 0.914, 305.616, 264.238)" fill="#fda9f3"/>
        <path id="Path_5375" data-name="Path 5375" d="M6.234,61.077S-11.022,11.158,11.885,1.3,66.744,40.914,66.744,40.914Z" transform="translate(14.129 57.423) rotate(-9)" fill="#ffccf9"/>
        <path id="Path_5376" data-name="Path 5376" d="M6.234,61.077S-11.022,11.158,11.885,1.3,66.744,40.914,66.744,40.914Z" transform="translate(251.114 40.561) rotate(70)" fill="#ffccf9"/>
        <path id="Path_5495" data-name="Path 5495" d="M1458.971,5573.684s29.559-18.475,76.161-9.275" transform="translate(-1301.275 -5545.462)" fill="none" stroke="#d66fc9" stroke-linecap="round" stroke-width="15"/>
        <path id="Path_5591" data-name="Path 5591" d="M13.554,0C21.04,0,27.108,9.786,27.108,21.859S21.04,38.023,13.554,38.023,0,33.931,0,21.859,6.068,0,13.554,0Z" transform="translate(80.027 203.66)" fill="#d5c"/>
        <path id="Path_5592" data-name="Path 5592" d="M13.554,0C21.04,0,27.108,9.786,27.108,21.859S21.04,38.023,13.554,38.023,0,33.931,0,21.859,6.068,0,13.554,0Z" transform="translate(130.415 203.66)" fill="#d5c"/>
      </g>
      <g id="Group_8361" data-name="Group 8361" transform="translate(1434.32 5330.336)">
        <ellipse id="Ellipse_2" data-name="Ellipse 2" cx="46.835" cy="46.835" rx="46.835" ry="46.835" transform="translate(19.41 5.56)" fill="#ffce00"/>
        <path id="Path_11" data-name="Path 11" d="M74.164,182.984a47.243,47.243,0,1,1,37.226-18.007A47.01,47.01,0,0,1,74.164,182.984ZM37.423,106.756l.323.242a46.4,46.4,0,1,0,65.165-7.752A46.454,46.454,0,0,0,37.746,107Z" transform="translate(-8 -83.349)" fill="#ffce00"/>
        <path id="Path_12" data-name="Path 12" d="M115.426,179.78a2.768,2.768,0,0,1-2.265-1.167,2.831,2.831,0,0,1,.618-3.913,33.994,33.994,0,0,0,13.868-24.165,2.828,2.828,0,1,1,5.629.549A39.318,39.318,0,0,1,117.143,179.3,3.1,3.1,0,0,1,115.426,179.78Z" transform="translate(-22.662 -91.993)" fill="#ffe93e"/>
        <path id="Path_13" data-name="Path 13" d="M118.914,129.319a3.172,3.172,0,0,1-3.127-2.58A38.572,38.572,0,0,0,78.1,96.011a38.091,38.091,0,0,0-21.5,6.568A3.209,3.209,0,0,1,53,97.262a44.939,44.939,0,0,1,69.117,28.226,3.149,3.149,0,0,1-2.5,3.753C119.383,129.241,119.148,129.319,118.914,129.319Z" transform="translate(-11.569 -82.904)" fill="#ffe93e"/>
        <g id="Group_38" data-name="Group 38" transform="translate(28.048 17.512)">
          <path id="Path_15" data-name="Path 15" d="M74.3,175.99a36.1,36.1,0,1,1,36.1-36.1A36.133,36.133,0,0,1,74.3,175.99Zm0-68.718a32.663,32.663,0,1,0,32.623,32.7A32.636,32.636,0,0,0,74.3,107.272Z" transform="translate(-38.2 -103.8)" fill="#e09b00"/>
        </g>
        <g id="Group_39" data-name="Group 39" transform="translate(28.856 15.006)">
          <path id="Path_16" data-name="Path 16" d="M76.587,175.474a37.387,37.387,0,1,1,37.387-37.387A37.461,37.461,0,0,1,76.587,175.474Zm0-71.221a33.834,33.834,0,1,0,33.834,33.834A33.876,33.876,0,0,0,76.587,104.253Z" transform="translate(-39.2 -100.7)" fill="#ffe200"/>
        </g>
        <path id="Path_4120" data-name="Path 4120" d="M7.9,1l2.436,4.464L14.793,7.9l-4.457,2.436L7.9,14.793,5.464,10.336,1,7.9,5.464,5.464Z" transform="translate(-1 25.963)" fill="#ffe488"/>
        <path id="Path_4123" data-name="Path 4123" d="M7.9,1l2.436,4.464L14.793,7.9l-4.457,2.436L7.9,14.793,5.464,10.336,1,7.9,5.464,5.464Z" transform="translate(104.073 84.338)" fill="#ffe488"/>
        <path id="Path_4121" data-name="Path 4121" d="M6.976,1l2.11,3.867,3.861,2.11L9.086,9.086l-2.11,3.861L4.867,9.086,1,6.976l3.867-2.11Z" transform="translate(64.733 92.122)" fill="#ffe488"/>
        <path id="Path_4122" data-name="Path 4122" d="M8.785,1l2.748,5.037,5.029,2.748-5.029,2.748L8.785,16.561,6.037,11.533,1,8.785,6.037,6.037Z" transform="translate(96.142 -1)" fill="#ffe488"/>
        <path id="Path_4782" data-name="Path 4782" d="M26.617.848,33.24,14.242a1.49,1.49,0,0,0,1.163.835l14.766,2.148A1.513,1.513,0,0,1,50,19.82L39.325,30.231a1.53,1.53,0,0,0-.447,1.342L41.413,46.28a1.523,1.523,0,0,1-2.207,1.611L25.991,40.94a1.521,1.521,0,0,0-1.432,0L11.344,47.891A1.518,1.518,0,0,1,9.137,46.28l2.536-14.707a1.477,1.477,0,0,0-.447-1.342L.516,19.82a1.519,1.519,0,0,1,.835-2.6l14.766-2.148a1.538,1.538,0,0,0,1.163-.835L23.873.848A1.515,1.515,0,0,1,26.617.848Z" transform="translate(39.952 27.77)" fill="#e09b00"/>
        <path id="Path_4781" data-name="Path 4781" d="M26.617.848,33.24,14.242a1.49,1.49,0,0,0,1.163.835l14.766,2.148A1.513,1.513,0,0,1,50,19.82L39.325,30.231a1.53,1.53,0,0,0-.447,1.342L41.413,46.28a1.523,1.523,0,0,1-2.207,1.611L25.991,40.94a1.521,1.521,0,0,0-1.432,0L11.344,47.891A1.518,1.518,0,0,1,9.137,46.28l2.536-14.707a1.477,1.477,0,0,0-.447-1.342L.516,19.82a1.519,1.519,0,0,1,.835-2.6l14.766-2.148a1.538,1.538,0,0,0,1.163-.835L23.873.848A1.515,1.515,0,0,1,26.617.848Z" transform="translate(39.952 25.826)" fill="#ffe200"/>
        <ellipse id="Ellipse_4654" data-name="Ellipse 4654" cx="3.892" cy="3.892" rx="3.892" ry="3.892" transform="translate(75.886 31.132)" fill="#e09b00"/>
        <ellipse id="Ellipse_4652" data-name="Ellipse 4652" cx="3.892" cy="3.892" rx="3.892" ry="3.892" transform="translate(75.886 29.188)" fill="#ffe200"/>
        <ellipse id="Ellipse_4653" data-name="Ellipse 4653" cx="0.973" cy="0.973" rx="0.973" ry="0.973" transform="translate(79.778 31.132)" fill="#fff28e"/>
        <ellipse id="Ellipse_4654-2" data-name="Ellipse 4654" cx="3.892" cy="3.892" rx="3.892" ry="3.892" transform="translate(44.753 31.132)" fill="#e09b00"/>
        <ellipse id="Ellipse_4652-2" data-name="Ellipse 4652" cx="3.892" cy="3.892" rx="3.892" ry="3.892" transform="translate(44.753 29.188)" fill="#ffe200"/>
        <ellipse id="Ellipse_4653-2" data-name="Ellipse 4653" cx="0.973" cy="0.973" rx="0.973" ry="0.973" transform="translate(48.645 31.132)" fill="#fff28e"/>
        <ellipse id="Ellipse_4654-3" data-name="Ellipse 4654" cx="3.892" cy="3.892" rx="3.892" ry="3.892" transform="translate(85.615 58.375)" fill="#e09b00"/>
        <ellipse id="Ellipse_4652-3" data-name="Ellipse 4652" cx="3.892" cy="3.892" rx="3.892" ry="3.892" transform="translate(85.615 56.427)" fill="#ffe200"/>
        <ellipse id="Ellipse_4653-3" data-name="Ellipse 4653" cx="0.973" cy="0.973" rx="0.973" ry="0.973" transform="translate(89.506 58.375)" fill="#fff28e"/>
        <ellipse id="Ellipse_4654-4" data-name="Ellipse 4654" cx="3.892" cy="3.892" rx="3.892" ry="3.892" transform="translate(36.97 58.375)" fill="#e09b00"/>
        <ellipse id="Ellipse_4652-4" data-name="Ellipse 4652" cx="3.892" cy="3.892" rx="3.892" ry="3.892" transform="translate(36.97 56.427)" fill="#ffe200"/>
        <ellipse id="Ellipse_4653-4" data-name="Ellipse 4653" cx="0.973" cy="0.973" rx="0.973" ry="0.973" transform="translate(40.862 58.375)" fill="#fff28e"/>
        <ellipse id="Ellipse_4654-5" data-name="Ellipse 4654" cx="3.892" cy="3.892" rx="3.892" ry="3.892" transform="translate(62.265 75.887)" fill="#e09b00"/>
        <ellipse id="Ellipse_4652-5" data-name="Ellipse 4652" cx="3.892" cy="3.892" rx="3.892" ry="3.892" transform="translate(62.265 73.942)" fill="#ffe200"/>
        <ellipse id="Ellipse_4653-5" data-name="Ellipse 4653" cx="0.973" cy="0.973" rx="0.973" ry="0.973" transform="translate(66.157 75.887)" fill="#fff28e"/>
        <path id="Path_4783" data-name="Path 4783" d="M16.419.513,20.5,8.764a.918.918,0,0,0,.717.515l9.1,1.323a.932.932,0,0,1,.515,1.6l-6.579,6.414a.943.943,0,0,0-.276.827l1.562,9.06a.938.938,0,0,1-1.36.992l-8.141-4.282a.937.937,0,0,0-.882,0L7.01,29.494A.935.935,0,0,1,5.65,28.5l1.562-9.06a.91.91,0,0,0-.276-.827L.339,12.2a.936.936,0,0,1,.515-1.6l9.1-1.323a.948.948,0,0,0,.717-.515L14.728.513A.934.934,0,0,1,16.419.513Z" transform="translate(49.632 35.057)" fill="#ffed65"/>
      </g>
      <g id="Group_9778" data-name="Group 9778" transform="translate(1434.32 5152.68)">
        <ellipse id="Ellipse_2-2" data-name="Ellipse 2" cx="38.092" cy="38.092" rx="38.092" ry="38.092" transform="matrix(0.848, -0.53, 0.53, 0.848, 1.383, 40.794)" fill="#ffce00"/>
        <path id="Path_11-2" data-name="Path 11" d="M38.333,76.82A38.424,38.424,0,1,1,68.61,62.174,38.234,38.234,0,0,1,38.333,76.82Zm-29.883-62,.263.2a37.742,37.742,0,1,0,53-6.3,37.783,37.783,0,0,0-53,6.3Z" transform="matrix(0.848, -0.53, 0.53, 0.848, 0.962, 40.697)" fill="#ffce00"/>
        <path id="Path_12-2" data-name="Path 12" d="M2.269,25.862a2.251,2.251,0,0,1-1.843-.949,2.3,2.3,0,0,1,.5-3.183A27.648,27.648,0,0,0,12.208,2.075a2.3,2.3,0,1,1,4.579.447A31.979,31.979,0,0,1,3.665,25.471,2.52,2.52,0,0,1,2.269,25.862Z" transform="matrix(0.848, -0.53, 0.53, 0.848, 71.79, 45.164)" fill="#ffe93e"/>
        <path id="Path_13-2" data-name="Path 13" d="M54.768,32.3a2.58,2.58,0,0,1-2.544-2.1A31.372,31.372,0,0,0,21.573,5.215,30.981,30.981,0,0,0,4.085,10.556a2.582,2.582,0,0,1-3.625-.7,2.582,2.582,0,0,1,.7-3.625A36.551,36.551,0,0,1,57.376,29.189a2.561,2.561,0,0,1-2.035,3.052C55.15,32.241,54.959,32.3,54.768,32.3Z" transform="matrix(0.848, -0.53, 0.53, 0.848, 16.079, 32.7)" fill="#ffe93e"/>
        <g id="Group_38-2" data-name="Group 38" transform="matrix(0.848, -0.53, 0.53, 0.848, 12.493, 45.314)">
          <path id="Path_15-2" data-name="Path 15" d="M29.357,58.715A29.357,29.357,0,1,1,58.715,29.357,29.389,29.389,0,0,1,29.357,58.715Zm0-55.891a26.566,26.566,0,1,0,26.533,26.6A26.544,26.544,0,0,0,29.357,2.824Z" transform="translate(0)" fill="#e09b00"/>
        </g>
        <g id="Group_39-2" data-name="Group 39" transform="matrix(0.848, -0.53, 0.53, 0.848, 11.969, 43.237)">
          <path id="Path_16-2" data-name="Path 16" d="M30.408,60.817A30.408,30.408,0,1,1,60.816,30.408,30.468,30.468,0,0,1,30.408,60.817Zm0-57.927A27.519,27.519,0,1,0,57.927,30.408,27.553,27.553,0,0,0,30.408,2.89Z" transform="translate(0)" fill="#ffe200"/>
        </g>
        <path id="Path_4120-2" data-name="Path 4120" d="M6.612,1,8.593,4.631l3.625,1.981L8.593,8.593,6.612,12.218,4.631,8.593,1,6.612,4.631,4.631Z" transform="translate(-1 31.224)" fill="#ffe488"/>
        <path id="Path_4121-2" data-name="Path 4121" d="M5.861,1,7.577,4.145l3.14,1.716L7.577,7.577l-1.716,3.14L4.145,7.577,1,5.861,4.145,4.145Z" transform="translate(52.463 85.035)" fill="#ffe488"/>
        <path id="Path_4782-2" data-name="Path 4782" d="M21.6.71,26.991,11.6a1.212,1.212,0,0,0,.946.679l12.01,1.747a1.231,1.231,0,0,1,.679,2.111L31.94,24.608a1.245,1.245,0,0,0-.364,1.092l2.062,11.961a1.239,1.239,0,0,1-1.8,1.31L21.095,33.318a1.237,1.237,0,0,0-1.165,0L9.182,38.972a1.234,1.234,0,0,1-1.8-1.31L9.449,25.7a1.2,1.2,0,0,0-.364-1.092L.375,16.141a1.235,1.235,0,0,1,.679-2.111l12.01-1.747a1.251,1.251,0,0,0,.946-.679L19.372.71A1.232,1.232,0,0,1,21.6.71Z" transform="matrix(0.848, -0.53, 0.53, 0.848, 25.151, 47.218)" fill="#e09b00"/>
        <path id="Path_4781-2" data-name="Path 4781" d="M21.6.71,26.991,11.6a1.212,1.212,0,0,0,.946.679l12.01,1.747a1.231,1.231,0,0,1,.679,2.111L31.94,24.608a1.245,1.245,0,0,0-.364,1.092l2.062,11.961a1.239,1.239,0,0,1-1.8,1.31L21.095,33.318a1.237,1.237,0,0,0-1.165,0L9.182,38.972a1.234,1.234,0,0,1-1.8-1.31L9.449,25.7a1.2,1.2,0,0,0-.364-1.092L.375,16.141a1.235,1.235,0,0,1,.679-2.111l12.01-1.747a1.251,1.251,0,0,0,.946-.679L19.372.71A1.232,1.232,0,0,1,21.6.71Z" transform="matrix(0.848, -0.53, 0.53, 0.848, 24.313, 45.878)" fill="#ffe200"/>
        <ellipse id="Ellipse_4654-6" data-name="Ellipse 4654" cx="3.165" cy="3.165" rx="3.165" ry="3.165" transform="matrix(0.848, -0.53, 0.53, 0.848, 51.359, 34.09)" fill="#e09b00"/>
        <ellipse id="Ellipse_4652-6" data-name="Ellipse 4652" cx="3.165" cy="3.165" rx="3.165" ry="3.165" transform="matrix(0.848, -0.53, 0.53, 0.848, 50.521, 32.749)" fill="#ffe200"/>
        <ellipse id="Ellipse_4653-6" data-name="Ellipse 4653" cx="0.791" cy="0.791" rx="0.791" ry="0.791" transform="matrix(0.848, -0.53, 0.53, 0.848, 54.043, 32.414)" fill="#fff28e"/>
        <ellipse id="Ellipse_4654-7" data-name="Ellipse 4654" cx="3.165" cy="3.165" rx="3.165" ry="3.165" transform="matrix(0.848, -0.53, 0.53, 0.848, 29.885, 47.509)" fill="#e09b00"/>
        <ellipse id="Ellipse_4652-7" data-name="Ellipse 4652" cx="3.165" cy="3.165" rx="3.165" ry="3.165" transform="matrix(0.848, -0.53, 0.53, 0.848, 29.047, 46.167)" fill="#ffe200"/>
        <ellipse id="Ellipse_4653-7" data-name="Ellipse 4653" cx="0.791" cy="0.791" rx="0.791" ry="0.791" transform="matrix(0.848, -0.53, 0.53, 0.848, 32.569, 45.831)" fill="#fff28e"/>
        <ellipse id="Ellipse_4654-8" data-name="Ellipse 4654" cx="3.165" cy="3.165" rx="3.165" ry="3.165" transform="matrix(0.848, -0.53, 0.53, 0.848, 69.811, 48.688)" fill="#e09b00"/>
        <ellipse id="Ellipse_4652-8" data-name="Ellipse 4652" cx="3.165" cy="3.165" rx="3.165" ry="3.165" transform="matrix(0.848, -0.53, 0.53, 0.848, 68.971, 47.344)" fill="#ffe200"/>
        <ellipse id="Ellipse_4653-8" data-name="Ellipse 4653" cx="0.791" cy="0.791" rx="0.791" ry="0.791" transform="matrix(0.848, -0.53, 0.53, 0.848, 72.495, 47.01)" fill="#fff28e"/>
        <ellipse id="Ellipse_4654-9" data-name="Ellipse 4654" cx="3.165" cy="3.165" rx="3.165" ry="3.165" transform="matrix(0.848, -0.53, 0.53, 0.848, 36.258, 69.654)" fill="#e09b00"/>
        <ellipse id="Ellipse_4652-9" data-name="Ellipse 4652" cx="3.165" cy="3.165" rx="3.165" ry="3.165" transform="matrix(0.848, -0.53, 0.53, 0.848, 35.419, 68.31)" fill="#ffe200"/>
        <ellipse id="Ellipse_4653-9" data-name="Ellipse 4653" cx="0.791" cy="0.791" rx="0.791" ry="0.791" transform="matrix(0.848, -0.53, 0.53, 0.848, 38.942, 67.976)" fill="#fff28e"/>
        <ellipse id="Ellipse_4654-10" data-name="Ellipse 4654" cx="3.165" cy="3.165" rx="3.165" ry="3.165" transform="matrix(0.848, -0.53, 0.53, 0.848, 61.253, 70.83)" fill="#e09b00"/>
        <ellipse id="Ellipse_4652-10" data-name="Ellipse 4652" cx="3.165" cy="3.165" rx="3.165" ry="3.165" transform="matrix(0.848, -0.53, 0.53, 0.848, 60.415, 69.489)" fill="#ffe200"/>
        <ellipse id="Ellipse_4653-10" data-name="Ellipse 4653" cx="0.791" cy="0.791" rx="0.791" ry="0.791" transform="matrix(0.848, -0.53, 0.53, 0.848, 63.938, 69.153)" fill="#fff28e"/>
        <path id="Path_4783-2" data-name="Path 4783" d="M13.31.437l3.318,6.711a.746.746,0,0,0,.583.419l7.4,1.076a.758.758,0,0,1,.419,1.3L19.677,15.16a.767.767,0,0,0-.224.673L20.723,23.2a.763.763,0,0,1-1.106.807L13,20.526a.762.762,0,0,0-.717,0L5.657,24.009A.76.76,0,0,1,4.551,23.2l1.271-7.369A.74.74,0,0,0,5.6,15.16L.231,9.944a.761.761,0,0,1,.419-1.3l7.4-1.076a.771.771,0,0,0,.583-.419l3.3-6.711A.759.759,0,0,1,13.31.437Z" transform="matrix(0.848, -0.53, 0.53, 0.848, 34.968, 48.072)" fill="#ffed65"/>
      </g>
      <g id="Group_9777" data-name="Group 9777" transform="matrix(0.799, 0.602, -0.602, 0.799, 1587.193, 5214.531)">
        <ellipse id="Ellipse_2-3" data-name="Ellipse 2" cx="32.339" cy="32.339" rx="32.339" ry="32.339" transform="translate(0.26 0.259)" fill="#ffce00"/>
        <path id="Path_11-3" data-name="Path 11" d="M32.543,65.217a32.621,32.621,0,1,1,25.7-12.434A32.46,32.46,0,0,1,32.543,65.217ZM7.174,12.582l.223.167a32.041,32.041,0,1,0,45-5.353,32.076,32.076,0,0,0-45,5.353Z" transform="translate(0 0)" fill="#ffce00"/>
        <path id="Path_12-3" data-name="Path 12" d="M1.926,21.956A1.911,1.911,0,0,1,.362,21.15a1.955,1.955,0,0,1,.427-2.7A23.472,23.472,0,0,0,10.364,1.762a1.953,1.953,0,1,1,3.887.379A27.149,27.149,0,0,1,3.111,21.624,2.139,2.139,0,0,1,1.926,21.956Z" transform="translate(48.984 35.081)" fill="#ffe93e"/>
        <path id="Path_13-3" data-name="Path 13" d="M46.5,27.426a2.19,2.19,0,0,1-2.16-1.782A26.633,26.633,0,0,0,18.315,4.427,26.3,26.3,0,0,0,3.468,8.962,2.192,2.192,0,0,1,.391,8.368,2.192,2.192,0,0,1,.985,5.291,31.03,31.03,0,0,1,48.71,24.78a2.174,2.174,0,0,1-1.728,2.591C46.82,27.372,46.658,27.426,46.5,27.426Z" transform="translate(14.481 1.043)" fill="#ffe93e"/>
        <g id="Group_38-3" data-name="Group 38" transform="translate(6.224 8.512)">
          <path id="Path_15-3" data-name="Path 15" d="M24.923,49.847A24.923,24.923,0,1,1,49.847,24.923,24.95,24.95,0,0,1,24.923,49.847Zm0-47.449A22.554,22.554,0,1,0,47.449,24.979,22.535,22.535,0,0,0,24.923,2.4Z" fill="#e09b00"/>
        </g>
        <g id="Group_39-3" data-name="Group 39" transform="translate(6.782 6.781)">
          <path id="Path_16-3" data-name="Path 16" d="M25.815,51.631A25.816,25.816,0,1,1,51.631,25.816,25.866,25.866,0,0,1,25.815,51.631Zm0-49.178A23.362,23.362,0,1,0,49.178,25.816,23.391,23.391,0,0,0,25.815,2.453Z" transform="translate(0 0)" fill="#ffe200"/>
        </g>
        <path id="Path_4121-3" data-name="Path 4121" d="M4.127,0,5.583,2.67,8.249,4.127,5.583,5.583,4.127,8.249,2.67,5.583,0,4.127,2.67,2.67Z" transform="translate(32.245 60.72)" fill="#ffe488"/>
        <path id="Path_4782-3" data-name="Path 4782" d="M18.341.6l4.573,9.248a1.029,1.029,0,0,0,.8.577l10.2,1.483A1.045,1.045,0,0,1,34.49,13.7l-7.374,7.189a1.057,1.057,0,0,0-.309.927l1.751,10.155a1.052,1.052,0,0,1-1.524,1.112l-9.125-4.8a1.05,1.05,0,0,0-.989,0L7.8,33.085a1.048,1.048,0,0,1-1.524-1.112L8.022,21.818a1.02,1.02,0,0,0-.309-.927L.318,13.7A1.049,1.049,0,0,1,.9,11.911l10.2-1.483a1.062,1.062,0,0,0,.8-.577L16.446.6A1.046,1.046,0,0,1,18.341.6Z" transform="translate(14.481 15.577)" fill="#e09b00"/>
        <path id="Path_4781-3" data-name="Path 4781" d="M18.341.6l4.573,9.248a1.029,1.029,0,0,0,.8.577l10.2,1.483A1.045,1.045,0,0,1,34.49,13.7l-7.374,7.189a1.057,1.057,0,0,0-.309.927l1.751,10.155a1.052,1.052,0,0,1-1.524,1.112l-9.125-4.8a1.05,1.05,0,0,0-.989,0L7.8,33.085a1.048,1.048,0,0,1-1.524-1.112L8.022,21.818a1.02,1.02,0,0,0-.309-.927L.318,13.7A1.049,1.049,0,0,1,.9,11.911l10.2-1.483a1.062,1.062,0,0,0,.8-.577L16.446.6A1.046,1.046,0,0,1,18.341.6Z" transform="translate(14.481 14.235)" fill="#ffe200"/>
        <ellipse id="Ellipse_4654-11" data-name="Ellipse 4654" cx="2.687" cy="2.687" rx="2.687" ry="2.687" transform="translate(39.256 17.916)" fill="#e09b00"/>
        <ellipse id="Ellipse_4652-11" data-name="Ellipse 4652" cx="2.687" cy="2.687" rx="2.687" ry="2.687" transform="translate(39.256 16.574)" fill="#ffe200"/>
        <ellipse id="Ellipse_4653-11" data-name="Ellipse 4653" cx="0.672" cy="0.672" rx="0.672" ry="0.672" transform="translate(41.943 17.916)" fill="#fff28e"/>
        <ellipse id="Ellipse_4654-12" data-name="Ellipse 4654" cx="2.687" cy="2.687" rx="2.687" ry="2.687" transform="translate(17.759 17.916)" fill="#e09b00"/>
        <ellipse id="Ellipse_4652-12" data-name="Ellipse 4652" cx="2.687" cy="2.687" rx="2.687" ry="2.687" transform="translate(17.759 16.574)" fill="#ffe200"/>
        <ellipse id="Ellipse_4653-12" data-name="Ellipse 4653" cx="0.672" cy="0.672" rx="0.672" ry="0.672" transform="translate(20.446 17.916)" fill="#fff28e"/>
        <ellipse id="Ellipse_4654-13" data-name="Ellipse 4654" cx="2.687" cy="2.687" rx="2.687" ry="2.687" transform="translate(45.974 36.727)" fill="#e09b00"/>
        <ellipse id="Ellipse_4652-13" data-name="Ellipse 4652" cx="2.687" cy="2.687" rx="2.687" ry="2.687" transform="translate(45.974 35.382)" fill="#ffe200"/>
        <ellipse id="Ellipse_4653-13" data-name="Ellipse 4653" cx="0.672" cy="0.672" rx="0.672" ry="0.672" transform="translate(48.661 36.727)" fill="#fff28e"/>
        <ellipse id="Ellipse_4654-14" data-name="Ellipse 4654" cx="2.687" cy="2.687" rx="2.687" ry="2.687" transform="translate(12.385 36.727)" fill="#e09b00"/>
        <ellipse id="Ellipse_4652-14" data-name="Ellipse 4652" cx="2.687" cy="2.687" rx="2.687" ry="2.687" transform="translate(12.385 35.382)" fill="#ffe200"/>
        <ellipse id="Ellipse_4653-14" data-name="Ellipse 4653" cx="0.672" cy="0.672" rx="0.672" ry="0.672" transform="translate(15.072 36.727)" fill="#fff28e"/>
        <ellipse id="Ellipse_4654-15" data-name="Ellipse 4654" cx="2.687" cy="2.687" rx="2.687" ry="2.687" transform="translate(29.851 48.819)" fill="#e09b00"/>
        <ellipse id="Ellipse_4652-15" data-name="Ellipse 4652" cx="2.687" cy="2.687" rx="2.687" ry="2.687" transform="translate(29.851 47.476)" fill="#ffe200"/>
        <ellipse id="Ellipse_4653-15" data-name="Ellipse 4653" cx="0.672" cy="0.672" rx="0.672" ry="0.672" transform="translate(32.538 48.819)" fill="#fff28e"/>
        <path id="Path_4783-3" data-name="Path 4783" d="M11.3.371l2.817,5.7a.634.634,0,0,0,.495.355l6.281.914a.644.644,0,0,1,.355,1.1L16.705,12.87a.651.651,0,0,0-.19.571L17.593,19.7a.648.648,0,0,1-.939.685l-5.621-2.957a.647.647,0,0,0-.609,0L4.8,20.383a.646.646,0,0,1-.939-.685l1.079-6.256a.628.628,0,0,0-.19-.571L.2,8.442a.646.646,0,0,1,.355-1.1l6.281-.914a.654.654,0,0,0,.495-.355l2.8-5.7A.645.645,0,0,1,11.3.371Z" transform="translate(21.165 20.61)" fill="#ffed65"/>
      </g>
    </g>
  </g>
</svg>
