<svg xmlns="http://www.w3.org/2000/svg" width="373" height="58" viewBox="0 0 373 58">
  <g id="Group_10629" data-name="Group 10629" transform="translate(-1165 -1129)">
    <rect id="Rectangle_1517" data-name="Rectangle 1517" width="373" height="58" rx="11" transform="translate(1165 1129)" fill="#3b7fe6"/>
    <text id="Like" transform="translate(1234 1163.286)" fill="#fff" font-size="14" font-family="Muli-ExtraBold, Muli" font-weight="800"><tspan x="-13.727" y="0">Like</tspan></text>
    <path id="Path_23" data-name="Path 23" d="M11.227-23.444v-3.411h2.193v-2.775q0-.095.014-.3t.041-.514a3.043,3.043,0,0,1,.474-1.3A3.706,3.706,0,0,1,15.3-32.974a5.559,5.559,0,0,1,2.721-.541h3.33v3.533H18.915a.954.954,0,0,0-.677.284.708.708,0,0,0-.3.514v2.328h3.411L21.23-25.57l-.135,1.1-.162,1.029H17.914v10.058H13.419V-23.444Z" transform="translate(1174.67 1181.926)" fill="#fff"/>
  </g>
</svg>
