<svg xmlns="http://www.w3.org/2000/svg" width="34.833" height="34.833" viewBox="0 0 34.833 34.833">
  <path id="Path_7057" data-name="Path 7057" d="M17.416,10.718a6.7,6.7,0,1,1-6.7,6.7A6.678,6.678,0,0,1,17.416,10.718Zm0-2.679A9.378,9.378,0,1,0,26.8,17.416,9.4,9.4,0,0,0,17.416,8.039ZM27.464,5.36a2.009,2.009,0,1,0,2.01,2.009A2.011,2.011,0,0,0,27.464,5.36ZM10.11,2.679H24.723a7.41,7.41,0,0,1,7.431,7.431V24.723a7.41,7.41,0,0,1-7.431,7.431H10.11a7.41,7.41,0,0,1-7.431-7.431V10.11A7.41,7.41,0,0,1,10.11,2.679ZM10.11,0A10.133,10.133,0,0,0,0,10.11V24.723a10.133,10.133,0,0,0,10.11,10.11H24.723a10.133,10.133,0,0,0,10.11-10.11V10.11A10.133,10.133,0,0,0,24.723,0Z" fill="#006cff"/>
</svg>
