<svg xmlns="http://www.w3.org/2000/svg" width="373" height="58" viewBox="0 0 373 58">
  <g id="Group_10627" data-name="Group 10627" transform="translate(-1165 -1207)">
    <rect id="Rectangle_1517" data-name="Rectangle 1517" width="373" height="58" rx="11" transform="translate(1165 1207)" fill="#45cdff"/>
    <text id="Follow" transform="translate(1220 1241.286)" fill="#fff" font-size="14" font-family="Muli-ExtraBold, Muli" font-weight="800"><tspan x="0" y="0">Follow</tspan></text>
    <g id="Group_10626" data-name="Group 10626" transform="translate(1172 1218.936)">
      <path id="Path_24" data-name="Path 24" d="M1.2-20.4A7.241,7.241,0,0,0,3.6-18.983a8.335,8.335,0,0,0,2.84.5,8.264,8.264,0,0,0,2.894-.532,7.212,7.212,0,0,0,2.57-1.65q-.108.018-.216.027t-.216.009a2.114,2.114,0,0,1-.757-.144,1.544,1.544,0,0,1-.613-.406.885.885,0,0,1-.243-.577.931.931,0,0,1,.261-.631,2.306,2.306,0,0,1,.9-.568q-.144.018-.28.027t-.28.009q-.2,0-.4-.018a3.586,3.586,0,0,1-.379-.054,2.858,2.858,0,0,1-1.443-.631,4.14,4.14,0,0,1-.811-.956,2.593,2.593,0,0,1,.8-.5,3.928,3.928,0,0,1,1.2-.207,4.558,4.558,0,0,1-2.362-1.064,3.182,3.182,0,0,1-.884-1.623q.487-.072.983-.171a1.864,1.864,0,0,1,.784-.027,4.582,4.582,0,0,1-1.966-1.641,3.094,3.094,0,0,1-.487-1.551.856.856,0,0,1,.018-.2q1.262.433,2.326.839t1.957.784q.893.379,1.65.739t1.443.7a4.418,4.418,0,0,1,1.046.649l1.136.974q.4-.938.839-1.894a16.477,16.477,0,0,1,.983-1.821,10.613,10.613,0,0,1,1.208-1.587,6.026,6.026,0,0,1,1.515-1.19,1.327,1.327,0,0,1-.433.812,4.358,4.358,0,0,1,2.254-1.01,1.054,1.054,0,0,1-.6.685q-.252.126-.487.225t-.433.171q.144-.036.568-.18t.893-.28a4.673,4.673,0,0,1,.866-.171q.4-.036.469.144a.264.264,0,0,1-.126.37,2.376,2.376,0,0,1-.568.261,6.868,6.868,0,0,1-.667.18q-.334.072-.442.108l-.667.234a1.014,1.014,0,0,1,.2-.018h.2a5.438,5.438,0,0,1,1.623.252,5.342,5.342,0,0,1,1.352.64,6.9,6.9,0,0,1,1.19.983,6.951,6.951,0,0,1,.947,1.226,5.962,5.962,0,0,1,.622,1.389l.072.289q.018.072.036.153t.036.171a2.448,2.448,0,0,0,.875.144,6.7,6.7,0,0,0,.983-.072,6.558,6.558,0,0,0,.911-.2,4.188,4.188,0,0,0,.64-.234,2.488,2.488,0,0,1-1.1,1.181,4.534,4.534,0,0,1-2.056.55A6.146,6.146,0,0,0,28.335-25q.216.018.433.027t.415.009a7,7,0,0,0,.9-.054,4.8,4.8,0,0,1-1.334.848,5.241,5.241,0,0,1-2.11.361,9.382,9.382,0,0,1-1.479,3.075A12,12,0,0,1,22.7-18.225a14.422,14.422,0,0,1-3.21,1.83,16.875,16.875,0,0,1-3.724,1.064,16.8,16.8,0,0,1-2.994.271,16.048,16.048,0,0,1-2.272-.162A15.838,15.838,0,0,1,5.451-16.81,13.014,13.014,0,0,1,1.2-20.4Z" transform="translate(3.795 41.706)" fill="#fff" opacity="0.995"/>
    </g>
  </g>
</svg>
