<svg xmlns="http://www.w3.org/2000/svg" width="28.299" height="18.124" viewBox="0 0 28.299 18.124">
  <path id="Path_24" data-name="Path 24" d="M1.2-20.667A7.093,7.093,0,0,0,3.554-19.28a8.164,8.164,0,0,0,2.782.486,8.1,8.1,0,0,0,2.835-.521,7.064,7.064,0,0,0,2.517-1.616q-.106.018-.212.026t-.212.009a2.071,2.071,0,0,1-.742-.141,1.512,1.512,0,0,1-.6-.4A.867.867,0,0,1,9.683-22a.912.912,0,0,1,.256-.618,2.259,2.259,0,0,1,.883-.556q-.141.018-.274.027t-.274.009q-.194,0-.389-.018a3.514,3.514,0,0,1-.371-.053A2.8,2.8,0,0,1,8.1-23.829a4.055,4.055,0,0,1-.795-.936,2.54,2.54,0,0,1,.786-.486,3.848,3.848,0,0,1,1.175-.2A4.465,4.465,0,0,1,6.954-26.5a3.117,3.117,0,0,1-.866-1.59q.477-.071.963-.168a1.826,1.826,0,0,1,.768-.026,4.489,4.489,0,0,1-1.925-1.608,3.031,3.031,0,0,1-.477-1.519.839.839,0,0,1,.018-.194q1.237.424,2.279.821t1.917.768q.874.371,1.616.724t1.413.689a4.328,4.328,0,0,1,1.025.636l1.113.954q.389-.919.821-1.855a16.14,16.14,0,0,1,.963-1.784A10.4,10.4,0,0,1,17.765-32.2a5.9,5.9,0,0,1,1.484-1.166,1.3,1.3,0,0,1-.424.795,4.269,4.269,0,0,1,2.208-.989,1.032,1.032,0,0,1-.583.671q-.247.124-.477.221t-.424.168q.141-.035.556-.177t.874-.274a4.577,4.577,0,0,1,.848-.168q.389-.035.459.141a.258.258,0,0,1-.124.362,2.327,2.327,0,0,1-.556.256,6.728,6.728,0,0,1-.654.177q-.327.071-.433.106l-.654.23a.993.993,0,0,1,.194-.018h.194a5.327,5.327,0,0,1,1.59.247,5.233,5.233,0,0,1,1.325.627,6.759,6.759,0,0,1,1.166.963,6.809,6.809,0,0,1,.927,1.2,5.841,5.841,0,0,1,.609,1.36l.071.283q.018.071.035.15t.035.168a2.4,2.4,0,0,0,.857.141,6.56,6.56,0,0,0,.963-.071,6.423,6.423,0,0,0,.892-.194,4.1,4.1,0,0,0,.627-.23,2.437,2.437,0,0,1-1.078,1.157,4.441,4.441,0,0,1-2.014.539,6.021,6.021,0,0,0,1.519.353q.212.018.424.026t.406.009a6.851,6.851,0,0,0,.883-.053,4.7,4.7,0,0,1-1.307.83,5.134,5.134,0,0,1-2.067.353,9.19,9.19,0,0,1-1.449,3.012,11.757,11.757,0,0,1-2.411,2.455,14.127,14.127,0,0,1-3.144,1.793A16.531,16.531,0,0,1,15.468-15.7a16.457,16.457,0,0,1-2.932.265A15.72,15.72,0,0,1,10.31-15.6a15.514,15.514,0,0,1-4.946-1.555A12.748,12.748,0,0,1,1.2-20.667Z" transform="translate(-1.195 33.563)" fill="#006cff"/>
</svg>
