<svg xmlns="http://www.w3.org/2000/svg" width="28.283" height="19.904" viewBox="0 0 28.283 19.904">
  <path id="Path_22" data-name="Path 22" d="M28.239,5.435a12.144,12.144,0,0,0-.412-2.41A3.48,3.48,0,0,0,25.177.57,9.315,9.315,0,0,0,23.726.355c-.8-.066-1.591-.127-2.388-.179C20.805.142,20.27.12,19.736.105,18.479.071,17.221.045,15.964.016,15.7.01,15.445.011,15.186.008A.675.675,0,0,1,15.117,0h-1.81c-.132,0-.263.01-.395.012C11.774.033,10.636.047,9.5.077,8.663.1,7.827.133,6.992.176c-.677.035-1.354.084-2.03.14a13.031,13.031,0,0,0-1.7.232A3.48,3.48,0,0,0,1.5,1.54a3.686,3.686,0,0,0-.987,1.9C.389,4.034.3,4.63.239,5.229.134,6.216.075,7.206.042,8.2.029,8.583.021,8.97.01,9.356c0,.035-.007.07-.01.1v.99c0,.033.009.065.01.1.022.662.033,1.324.067,1.985.032.625.083,1.25.136,1.875a17.961,17.961,0,0,0,.268,1.929,3.874,3.874,0,0,0,.71,1.681,3.551,3.551,0,0,0,2.159,1.341,14.446,14.446,0,0,0,1.826.239c.834.062,1.668.119,2.5.163q1.069.056,2.14.076c1.494.029,2.987.064,4.481.067,1.385,0,2.771-.029,4.156-.057.8-.016,1.6-.046,2.4-.084.767-.037,1.534-.085,2.3-.141q.923-.067,1.837-.22a3.573,3.573,0,0,0,2.889-2.688,13.616,13.616,0,0,0,.284-1.676c.037-.328.067-.656.1-.984A.39.39,0,0,1,28.283,14V5.812C28.268,5.686,28.252,5.561,28.239,5.435ZM11.389,14.22V5.69L18.8,9.955Z" transform="translate(0)" fill="#006cff"/>
</svg>
