<svg xmlns="http://www.w3.org/2000/svg" width="373" height="58" viewBox="0 0 373 58">
  <g id="Group_10628" data-name="Group 10628" transform="translate(-1165 -1285)">
    <rect id="Rectangle_1517" data-name="Rectangle 1517" width="373" height="58" rx="11" transform="translate(1165 1285)" fill="#fa1b1b"/>
    <text id="Subscribe" transform="translate(1220 1319.286)" fill="#fff" font-size="14" font-family="Muli-ExtraBold, Muli" font-weight="800"><tspan x="0" y="0">Subscribe</tspan></text>
    <path id="Path_22" data-name="Path 22" d="M23.917,4.6a10.285,10.285,0,0,0-.349-2.041A2.947,2.947,0,0,0,21.325.482,7.89,7.89,0,0,0,20.1.3C19.422.245,18.748.193,18.073.149c-.452-.029-.9-.048-1.357-.06-1.065-.029-2.13-.052-3.2-.076-.219,0-.439,0-.658-.007A.572.572,0,0,1,12.8,0H11.271c-.111,0-.223.008-.334.01C9.973.028,9.009.04,8.045.065,7.337.083,6.629.113,5.922.149,5.348.179,4.775.22,4.2.268a11.037,11.037,0,0,0-1.439.2,2.948,2.948,0,0,0-1.5.839A3.122,3.122,0,0,0,.431,2.916C.33,3.417.257,3.921.2,4.429.114,5.265.064,6.1.036,6.943.025,7.27.018,7.6.009,7.924c0,.029-.006.059-.009.088v.838c0,.028.008.055.009.083.018.561.028,1.121.057,1.681.027.53.071,1.059.115,1.588a15.212,15.212,0,0,0,.227,1.634,3.281,3.281,0,0,0,.6,1.424A3.007,3.007,0,0,0,2.838,16.4a12.236,12.236,0,0,0,1.547.2c.706.052,1.413.1,2.12.138q.906.048,1.813.064c1.265.025,2.53.054,3.8.056,1.173,0,2.347-.025,3.52-.048.678-.014,1.357-.039,2.034-.071.65-.031,1.3-.072,1.948-.12q.782-.057,1.556-.186a3.026,3.026,0,0,0,2.447-2.277,11.532,11.532,0,0,0,.241-1.42c.031-.277.057-.555.085-.833a.33.33,0,0,1,.011-.046V4.922C23.942,4.816,23.929,4.71,23.917,4.6ZM9.646,12.044V4.819L15.92,8.432Z" transform="translate(1180.573 1307.218)" fill="#fff"/>
  </g>
</svg>
